<svg width="63" height="63" viewBox="0 0 63 63" fill="none" xmlns="http://www.w3.org/2000/svg">
<g clip-path="url(#clip0_195_341)">
<path d="M57.708 42.9128C57.8517 42.6136 57.8517 42.3281 58.0073 42.0308C61.5333 28.1866 53.1464 11.9956 38.7194 3.465C45.045 11.9956 47.5473 22.1583 45.3423 31.2854C45.1678 32.0916 44.9207 32.8804 44.604 33.642C44.1993 33.4149 43.8058 33.1685 43.4247 32.9037C43.4247 32.9037 29.1493 24.0758 13.8403 8.61131C13.3993 8.17031 22.0854 20.977 31.7953 31.1397C27.2337 28.4858 14.2813 19.215 6.17991 11.7101C7.06191 13.3186 8.39475 14.9389 9.71775 16.5611C16.4843 25.2453 25.324 35.847 35.9179 43.9366C28.411 48.51 17.9629 48.7974 7.36116 43.9366C4.71516 42.7691 2.50031 41.2906 -0.00196838 39.5286C4.41788 46.4487 11.338 52.7743 19.5832 56.1606C29.4486 60.4347 39.4538 60.1374 46.6633 56.1606H46.8188C47.1043 56.0168 47.4036 55.8613 47.7008 55.5758C51.2289 53.802 58.149 51.8963 61.9723 59.2554C63.0099 61.3167 64.9176 51.7506 57.708 42.9128Z" fill="#545454"/>
</g>
<defs>
<clipPath id="clip0_195_341">
<rect width="63" height="63" fill="white"/>
</clipPath>
</defs>
</svg>
