<svg width="143" height="70" viewBox="0 0 143 70" fill="none" xmlns="http://www.w3.org/2000/svg">
<path d="M22.6055 25.8633C22.6055 28.2891 21.7031 30.1465 19.8984 31.4355C18.1055 32.7129 15.4688 33.3516 11.9883 33.3516C5.71875 33.3516 2.06836 31.084 1.03711 26.5488L6.04688 25.7227C6.38672 27.0352 7.04883 27.9902 8.0332 28.5879C9.01758 29.1738 10.3828 29.4668 12.1289 29.4668C13.9453 29.4668 15.3047 29.1914 16.207 28.6406C17.1094 28.0898 17.5605 27.2637 17.5605 26.1621C17.5605 25.459 17.3555 24.8789 16.9453 24.4219C16.5352 23.9648 15.9492 23.584 15.1875 23.2793C14.8125 23.127 14.2617 22.9629 13.5352 22.7871C12.8086 22.5996 11.9062 22.3945 10.8281 22.1719C9.58594 21.8789 8.61328 21.6328 7.91016 21.4336C7.20703 21.2227 6.64453 21.0234 6.22266 20.8359C5.80078 20.6367 5.39062 20.4199 4.99219 20.1855C4.11328 19.6582 3.42773 18.9551 2.93555 18.0762C2.44336 17.1973 2.19727 16.1016 2.19727 14.7891C2.19727 12.5508 3.03516 10.8398 4.71094 9.65625C6.39844 8.46094 8.84766 7.86328 12.0586 7.86328C15.1289 7.86328 17.4316 8.34375 18.9668 9.30469C20.5137 10.2656 21.5098 11.8535 21.9551 14.0684L16.9277 14.7539C16.6699 13.6875 16.1426 12.8848 15.3457 12.3457C14.5605 11.8066 13.4297 11.5371 11.9531 11.5371C10.3828 11.5371 9.20508 11.7832 8.41992 12.2754C7.63477 12.7676 7.24219 13.5059 7.24219 14.4902C7.24219 15.1348 7.40625 15.6621 7.73438 16.0723C8.07422 16.4824 8.57227 16.834 9.22852 17.127C9.84961 17.4082 11.1797 17.7656 13.2188 18.1992C14.4023 18.457 15.4219 18.7031 16.2773 18.9375C17.1328 19.1602 17.8184 19.377 18.334 19.5879C18.8496 19.8105 19.3066 20.0449 19.7051 20.291C20.1152 20.5371 20.4668 20.8008 20.7598 21.082C21.3574 21.6562 21.8145 22.3418 22.1309 23.1387C22.4473 23.9238 22.6055 24.832 22.6055 25.8633ZM38.5474 21.4336L35.4888 33H30.2681L25.3463 13.9805H29.9869L32.4127 25.2305C32.5298 25.7695 32.647 26.3145 32.7642 26.8652C32.8814 27.416 32.9986 27.9668 33.1158 28.5176C33.233 27.9551 33.3384 27.3926 33.4322 26.8301C33.5259 26.2676 33.649 25.7109 33.8013 25.1602L36.7896 13.9805H42.0806L44.9986 25.1602C45.0806 25.4648 45.1802 25.8984 45.2974 26.4609C45.4263 27.0117 45.567 27.6973 45.7193 28.5176C45.8482 27.9551 45.9713 27.3984 46.0884 26.8477C46.2173 26.2852 46.3404 25.7227 46.4576 25.1602L48.9537 13.9805H53.524L48.5318 33H43.3111L40.2877 21.3984C40.2173 21.1289 40.1119 20.6719 39.9713 20.0273C39.8306 19.3711 39.6607 18.5273 39.4615 17.4961C39.3091 18.1523 39.1627 18.8086 39.022 19.4648C38.8814 20.1211 38.7232 20.7773 38.5474 21.4336ZM62.3644 6.91406V10.5527H57.4249V6.91406H62.3644ZM62.3644 13.9805V33H57.4249V13.9805H62.3644ZM74.6852 17.3203V33H69.7634V17.3203H66.986V13.9805H69.7634V11.9941C69.7634 10.2715 70.2204 8.99414 71.1345 8.16211C72.0485 7.33008 73.4372 6.91406 75.3005 6.91406C76.2614 6.91406 77.3044 7.00781 78.4294 7.19531V10.377C77.9606 10.2715 77.4802 10.2188 76.988 10.2188C76.1442 10.2188 75.5466 10.3887 75.195 10.7285C74.8552 11.0566 74.6852 11.6426 74.6852 12.4863V13.9805H78.4294V17.3203H74.6852ZM91.3479 32.7188C90.1526 33.1172 88.7639 33.3164 87.1819 33.3164C85.7288 33.3164 84.6096 32.9238 83.8245 32.1387C83.0393 31.3418 82.6467 30.1406 82.6467 28.5352V17.3203H80.2385V13.9805H82.8928L84.4397 9.51562H87.5334V13.9805H91.137V17.3203H87.5334V27.1992C87.5334 28.125 87.7092 28.8105 88.0608 29.2559C88.4123 29.6895 88.9573 29.9062 89.6955 29.9062C90.0471 29.9062 90.5979 29.8242 91.3479 29.6602V32.7188Z" fill="url(#paint0_linear_195_338)"/>
<path d="M52.5938 58.3828V69H47.4082V44.2324H52.5938V54.0938H63.3867V44.2324H68.5723V69H63.3867V58.3828H52.5938ZM87.063 65.2207C86.4068 66.6621 85.5689 67.7109 84.5494 68.3672C83.5416 69.0234 82.3404 69.3516 80.9459 69.3516C78.9302 69.3516 77.3834 68.7363 76.3052 67.5059C75.2271 66.2637 74.688 64.4473 74.688 62.0566V49.9805H79.6275V60.6504C79.6275 62.3145 79.9088 63.5684 80.4713 64.4121C81.0338 65.2441 81.8775 65.6602 83.0025 65.6602C84.1978 65.6602 85.1588 65.1504 85.8853 64.1309C86.6236 63.0996 86.9927 61.7812 86.9927 60.1758V49.9805H91.9322V64.7461C91.9322 65.5547 91.9439 66.3164 91.9673 67.0312C91.9908 67.7344 92.0259 68.3906 92.0728 69H87.3619C87.2916 68.1562 87.2388 67.418 87.2037 66.7852C87.1685 66.1523 87.1509 65.6309 87.1509 65.2207H87.063ZM116.417 59.4199C116.417 62.5605 115.784 65.0039 114.519 66.75C113.265 68.4844 111.466 69.3516 109.122 69.3516C107.775 69.3516 106.609 69.0586 105.624 68.4727C104.64 67.8867 103.884 67.043 103.357 65.9414H103.321C103.321 66.2109 103.31 66.5625 103.286 66.9961C103.263 67.4297 103.234 67.8398 103.198 68.2266C103.163 68.6016 103.122 68.8594 103.075 69H98.2765C98.3234 68.4492 98.3585 67.8164 98.382 67.1016C98.4054 66.375 98.4171 65.5605 98.4171 64.6582V42.9141H103.357V50.1914C103.357 50.707 103.345 51.2227 103.321 51.7383C103.31 52.2539 103.298 52.7695 103.286 53.2852H103.357C103.907 52.0664 104.693 51.1523 105.712 50.543C106.732 49.9336 107.974 49.6289 109.439 49.6289C111.689 49.6289 113.411 50.4844 114.607 52.1953C115.814 53.8945 116.417 56.3027 116.417 59.4199ZM111.267 59.4199C111.267 57.2637 110.95 55.6641 110.318 54.6211C109.685 53.5781 108.706 53.0566 107.382 53.0566C106.046 53.0566 105.026 53.6191 104.323 54.7441C103.632 55.8574 103.286 57.4688 103.286 59.5781C103.286 61.5938 103.626 63.1641 104.306 64.2891C104.997 65.4141 106.011 65.9766 107.347 65.9766C108.659 65.9766 109.638 65.4316 110.282 64.3418C110.939 63.252 111.267 61.6113 111.267 59.4199Z" fill="url(#paint1_linear_195_338)"/>
<defs>
<linearGradient id="paint0_linear_195_338" x1="46" y1="0" x2="46" y2="42" gradientUnits="userSpaceOnUse">
<stop stop-color="#007690" stop-opacity="0.81"/>
<stop offset="1" stop-color="#0353B0"/>
</linearGradient>
<linearGradient id="paint1_linear_195_338" x1="94" y1="44" x2="94" y2="70" gradientUnits="userSpaceOnUse">
<stop offset="0.380424" stop-color="#297AC4"/>
<stop offset="1" stop-color="#172350"/>
</linearGradient>
</defs>
</svg>
